<?xml version='1.0' encoding='UTF-8'?>
<svg viewBox="-0.0125 -4 32 32" xmlns="http://www.w3.org/2000/svg" xmlns:xlink="http://www.w3.org/1999/xlink">
  <g id="Layer_1" transform="translate(-0.0125012397766113, -4)" style="enable-background:new 0 0 32 32">
    <g id="New">
      <g>
        <path d="M19, 4L7, 4C6.4, 4 6, 4.4 6, 5L6, 27C6, 27.6 6.4, 28 7, 28L25, 28C25.6, 28 26, 27.6 26, 27L26, 11L19, 4zM24, 26L8, 26L8, 6L18, 6L18, 11C18, 11.6 18.4, 12 19, 12L24, 12L24, 26z" fill="#727272" class="Black" />
      </g>
    </g>
  </g>
  <g id="Layer_1" transform="translate(-0.0125012397766113, -4)" style="enable-background:new 0 0 32 32">
    <g id="New">
      <g>
        <path d="M19, 4L7, 4C6.4, 4 6, 4.4 6, 5L6, 27C6, 27.6 6.4, 28 7, 28L25, 28C25.6, 28 26, 27.6 26, 27L26, 11L19, 4zM24, 26L8, 26L8, 6L18, 6L18, 11C18, 11.6 18.4, 12 19, 12L24, 12L24, 26z" fill="#727272" class="Black" />
      </g>
    </g>
  </g>
  <g id="Layer_1" transform="translate(11.9874992370605, 6)" style="enable-background:new 0 0 16 16">
    <g transform="matrix(-1, 0, 0, 1, 4, 0)">
      <g id="Edit_1_">
        <polygon points="0,16 4,16 0,12  " fill="#1177D7" class="Blue" />
      </g>
    </g>
  </g>
  <g id="Layer_1" transform="translate(5.3103008972168, 5.99999993133545)" style="enable-background:new 0 0 16 16">
    <g transform="matrix(-1, 0, 0, 1, 10.6772003173828, 0)">
      <g id="Edit_1_">
        <rect x="1.9" y="6.5" width="9.5" height="5.6" rx="0" ry="0" fill="#1177D7" class="Blue" transform="matrix(0.7071, -0.7071, 0.7071, 0.7071, -4.6432, 7.4493)" />
      </g>
    </g>
  </g>
  <g id="Layer_1" transform="translate(9.40000114440918, 5.99999961853027)" style="enable-background:new 0 0 16 16">
    <g transform="matrix(-1, 0, 0, 1, 6.58750009536743, 0)">
      <g id="Edit_1_">
        <path d="M15.6, 2.5L13.5, 0.4C13, -0.1 12.1, -0.1 11.6, 0.4L9.4, 2.7L13.4, 6.7L15.7, 4.4C16.1, 3.9 16.1, 3 15.6, 2.5z" fill="#1177D7" class="Blue" />
      </g>
    </g>
  </g>
  <g id="Layer_1" transform="translate(10.6843014984131, 6.00000022735596)" style="enable-background:new 0 0 16 16">
    <g transform="matrix(-1, 0, 0, 1, 5.30319976806641, 0)">
      <g id="Edit_1_">
        <rect x="1.7" y="10.5" width="1.9" height="5.6" rx="0" ry="0" fill="#FFFFFF" class="White" transform="matrix(0.7071, -0.7071, 0.7071, 0.7071, -8.6546, 5.7876)" />
      </g>
    </g>
  </g>
  <g id="Layer_1" transform="translate(10.684302897644, 6.00000004882813)" style="enable-background:new 0 0 16 16">
    <g transform="matrix(-1, 0, 0, 1, 5.30319976806641, 0)">
      <g id="Edit_1_">
        <rect x="9.7" y="2.5" width="1.9" height="5.6" rx="0" ry="0" fill="#FFFFFF" class="White" transform="matrix(0.7071, -0.7071, 0.7071, 0.7071, -0.6318, 9.1109)" />
      </g>
    </g>
  </g>
</svg>